<svg xmlns="http://www.w3.org/2000/svg" viewBox="0 0 920 600" font-family="-apple-system, BlinkMacSystemFont, 'Segoe UI', sans-serif">
  <defs>
    <linearGradient id="bg" x1="0" y1="0" x2="0" y2="1">
      <stop offset="0" stop-color="#141a28"/><stop offset="1" stop-color="#0b0e16"/>
    </linearGradient>
  </defs>
  <rect width="920" height="600" rx="18" fill="url(#bg)"/>
  <rect x="0.5" y="0.5" width="919" height="599" rx="18" fill="none" stroke="#ffffff" stroke-opacity="0.12"/>
  <!-- title bar -->
  <rect width="920" height="48" rx="18" fill="#ffffff" fill-opacity="0.04"/>
  <rect y="24" width="920" height="24" fill="#ffffff" fill-opacity="0.04"/>
  <circle cx="26" cy="24" r="6.5" fill="#ff5f57"/><circle cx="48" cy="24" r="6.5" fill="#febc2e"/><circle cx="70" cy="24" r="6.5" fill="#28c840"/>
  <text x="100" y="29" fill="#98a1b8" font-size="14" font-family="ui-monospace, Menlo, monospace">DiskLens — Macintosh HD › Users › you</text>
  <!-- treemap -->
  <g>
    <rect x="14" y="60" width="446" height="320" rx="8" fill="#4d8cea"/>
    <text x="30" y="88" fill="#fff" font-size="17" font-weight="700">Library</text>
    <text x="30" y="110" fill="#fff" font-size="14" opacity="0.85">12.4 GB</text>

    <rect x="14" y="388" width="278" height="198" rx="8" fill="#ed8c4d"/>
    <text x="30" y="416" fill="#fff" font-size="17" font-weight="700">Movies</text>
    <text x="30" y="438" fill="#fff" font-size="14" opacity="0.85">4.0 GB</text>

    <rect x="300" y="388" width="160" height="198" rx="8" fill="#4d8cea"/>
    <text x="316" y="416" fill="#fff" font-size="16" font-weight="700">Downloads</text>
    <text x="316" y="437" fill="#fff" font-size="13" opacity="0.85">1.1 GB</text>

    <rect x="468" y="60" width="438" height="226" rx="8" fill="#5cc78d"/>
    <text x="484" y="88" fill="#fff" font-size="17" font-weight="700">node_modules</text>
    <text x="484" y="110" fill="#fff" font-size="14" opacity="0.85">2.6 GB</text>

    <rect x="468" y="294" width="232" height="146" rx="8" fill="#ccb85c"/>
    <text x="484" y="322" fill="#fff" font-size="16" font-weight="700">Photos</text>
    <text x="484" y="343" fill="#fff" font-size="13" opacity="0.85">1.8 GB</text>

    <rect x="708" y="294" width="198" height="146" rx="8" fill="#8c80ea"/>
    <text x="724" y="322" fill="#fff" font-size="16" font-weight="700">Docs</text>
    <text x="724" y="343" fill="#fff" font-size="13" opacity="0.85">640 MB</text>

    <rect x="468" y="448" width="214" height="138" rx="8" fill="#66bcdb"/>
    <text x="484" y="476" fill="#fff" font-size="16" font-weight="700">Caches</text>
    <text x="484" y="497" fill="#fff" font-size="13" opacity="0.85">520 MB</text>

    <rect x="690" y="448" width="216" height="138" rx="8" fill="#8c95a0"/>
    <text x="706" y="476" fill="#fff" font-size="16" font-weight="700">Other</text>
    <text x="706" y="497" fill="#fff" font-size="13" opacity="0.85">380 MB</text>
  </g>
</svg>
